<svg version="1.1" id="Layer_1" xmlns="http://www.w3.org/2000/svg" xmlns:xlink="http://www.w3.org/1999/xlink" x="0px" y="0px"
	 width="100%" viewBox="0 0 373 282" enable-background="new 0 0 373 282" xml:space="preserve">
<path fill="#F8F8F8" opacity="1.000000" stroke="none" 
	d="
M346.000000,283.000000 
	C230.666702,283.000000 115.833412,283.000000 1.000093,283.000000 
	C1.000062,189.000076 1.000062,95.000153 1.000031,1.000168 
	C125.333214,1.000112 249.666428,1.000112 373.999725,1.000056 
	C373.999817,94.999847 373.999817,188.999695 373.999908,282.999756 
	C364.833344,283.000000 355.666656,283.000000 346.000000,283.000000 
M188.383865,144.115738 
	C181.387833,136.990646 174.445374,129.811615 167.360764,122.775726 
	C165.416977,120.845299 162.928680,118.454765 162.196396,123.189575 
	C163.585114,126.441292 164.898346,129.599564 165.013275,132.800842 
	C165.317734,141.283142 165.108032,149.784042 165.095352,158.277542 
	C165.085236,165.054703 165.838791,165.860214 172.438812,165.875000 
	C181.598450,165.895508 190.760818,165.766403 199.915726,165.975800 
	C201.874512,166.020599 204.211182,166.769928 205.664017,168.019730 
	C208.440659,170.408356 209.575027,169.264740 210.935349,166.174316 
	C203.604324,159.007416 196.243942,151.811813 188.383865,144.115738 
M186.599228,134.899261 
	C194.145874,142.418457 201.692535,149.937668 209.239182,157.456879 
	C209.708633,157.191223 210.178101,156.925583 210.647552,156.659927 
	C210.647552,145.909622 210.877457,135.148697 210.382339,124.421234 
	C210.313599,122.931747 206.761398,120.593384 204.660202,120.399513 
	C198.714890,119.850967 192.685623,120.212875 186.689438,120.214661 
	C182.307663,120.215958 177.925873,120.214912 173.544098,120.214912 
	C173.343048,120.706055 173.141998,121.197197 172.940948,121.688347 
	C177.325180,125.927032 181.709396,130.165726 186.599228,134.899261 
z"/>
<path fill="#B0B0B0" opacity="1.000000" stroke="none" 
	d="
M188.633713,144.365982 
	C196.243942,151.811813 203.604324,159.007416 210.935349,166.174316 
	C209.575027,169.264740 208.440659,170.408356 205.664017,168.019730 
	C204.211182,166.769928 201.874512,166.020599 199.915726,165.975800 
	C190.760818,165.766403 181.598450,165.895508 172.438812,165.875000 
	C165.838791,165.860214 165.085236,165.054703 165.095352,158.277542 
	C165.108032,149.784042 165.317734,141.283142 165.013275,132.800842 
	C164.898346,129.599564 163.585114,126.441292 162.196396,123.189575 
	C162.928680,118.454765 165.416977,120.845299 167.360764,122.775726 
	C174.445374,129.811615 181.387833,136.990646 188.633713,144.365982 
M191.649017,153.069153 
	C189.622696,152.692719 187.596359,152.316284 185.570038,151.939850 
	C185.495392,152.312180 185.420761,152.684509 185.346115,153.056839 
	C183.610916,150.974976 181.875717,148.893112 179.783798,146.383286 
	C177.260559,149.593033 175.186478,152.231415 172.305847,155.895798 
	C179.442520,155.895798 185.313904,155.932846 191.181396,155.798981 
	C191.515350,155.791367 191.817383,154.384399 191.649017,153.069153 
z"/>
<path fill="#AEAEAE" opacity="1.000000" stroke="none" 
	d="
M186.346436,134.651825 
	C181.709396,130.165726 177.325180,125.927032 172.940948,121.688347 
	C173.141998,121.197197 173.343048,120.706055 173.544098,120.214912 
	C177.925873,120.214912 182.307663,120.215958 186.689438,120.214661 
	C192.685623,120.212875 198.714890,119.850967 204.660202,120.399513 
	C206.761398,120.593384 210.313599,122.931747 210.382339,124.421234 
	C210.877457,135.148697 210.647552,145.909622 210.647552,156.659927 
	C210.178101,156.925583 209.708633,157.191223 209.239182,157.456879 
	C201.692535,149.937668 194.145874,142.418457 186.346436,134.651825 
z"/>
<path fill="#F1F1F1" opacity="1.000000" stroke="none" 
	d="
M191.891632,153.348938 
	C191.817383,154.384399 191.515350,155.791367 191.181396,155.798981 
	C185.313904,155.932846 179.442520,155.895798 172.305847,155.895798 
	C175.186478,152.231415 177.260559,149.593033 179.783798,146.383286 
	C181.875717,148.893112 183.610916,150.974976 185.346115,153.056839 
	C185.420761,152.684509 185.495392,152.312180 185.570038,151.939850 
	C187.596359,152.316284 189.622696,152.692719 191.891632,153.348938 
z"/>
</svg>