<svg viewBox="0 0 64 64" xmlns="http://www.w3.org/2000/svg">
    <path fill-rule="evenodd" clip-rule="evenodd" d="M49.8277 50.9256C54.8591 46.1843 58 39.459 58 32C58 17.6406 46.3594 6 32 6C17.6406 6 6 17.6406 6 32C6 39.459 9.14094 46.1843 14.1723 50.9256C18.827 55.3118 25.0996 58 32 58C38.9004 58 45.173 55.3118 49.8277 50.9256ZM16.387 47.4995C20.0523 42.9275 25.6843 40 32 40C38.3157 40 43.9477 42.9275 47.613 47.4995C43.6274 51.5141 38.104 54 32 54C25.896 54 20.3726 51.5141 16.387 47.4995ZM42 24C42 29.5228 37.5228 34 32 34C26.4772 34 22 29.5228 22 24C22 18.4772 26.4772 14 32 14C37.5228 14 42 18.4772 42 24Z" fill="#122965"/>
</svg>